<svg width="15" height="15" viewBox="0 0 15 15" fill="none" xmlns="http://www.w3.org/2000/svg">
<g clip-path="url(#clip0_20417_33866)">
<path d="M8.73993 10.3077C9.6839 9.69554 10.9637 9.69567 11.9099 10.3077C12.3053 10.5629 12.672 10.7343 13.0065 10.7941L13.1198 10.8097C13.3837 10.8354 13.6484 10.785 13.9372 10.5987C14.2275 10.4106 14.6394 10.4567 14.864 10.712C15.0973 10.9776 15.0274 11.3547 14.7292 11.546L14.7302 11.547C14.0809 11.9673 13.3945 12.062 12.7438 11.9503C12.1249 11.843 11.57 11.5545 11.112 11.2579C10.6399 10.9515 10.005 10.9515 9.5329 11.2579C8.95674 11.6321 8.26849 12.005 7.4997 12.005C6.73089 12.0049 6.04502 11.6297 5.46942 11.2579C4.99733 10.9515 4.36144 10.9515 3.88934 11.2579C3.31967 11.6258 2.58094 11.9963 1.74579 11.9923C1.2429 11.9902 0.741388 11.8508 0.272157 11.547C-0.0262124 11.3535 -0.0928606 10.9774 0.140322 10.712C0.364878 10.4567 0.776742 10.4107 1.06708 10.5987C1.31885 10.7613 1.54475 10.8146 1.7536 10.8165C2.14157 10.8182 2.58892 10.6379 3.0954 10.3097C4.03929 9.6977 5.32051 9.69756 6.26434 10.3097C6.83174 10.6771 7.20678 10.8282 7.50263 10.8282L7.61786 10.8214C7.88702 10.7882 8.22241 10.639 8.69501 10.337L8.73993 10.3077ZM8.73993 6.8839C9.6839 6.27171 10.9637 6.27184 11.9099 6.8839C12.3053 7.139 12.672 7.31045 13.0065 7.37022L13.1198 7.38585C13.3837 7.41157 13.6485 7.36114 13.9372 7.17491C14.2276 6.98675 14.6394 7.0328 14.864 7.28819C15.0973 7.55373 15.0275 7.93089 14.7292 8.12218L14.7302 8.12315C14.0809 8.54345 13.3945 8.63814 12.7438 8.52647C12.1249 8.41922 11.57 8.13062 11.112 7.83409C10.6399 7.52766 10.005 7.52767 9.5329 7.83409C8.95666 8.2083 8.2684 8.58018 7.4997 8.58019C6.73098 8.58013 6.0451 8.20588 5.46942 7.83409C4.99733 7.52766 4.36144 7.52767 3.88934 7.83409C3.31969 8.20197 2.58091 8.57242 1.74579 8.56847C1.2429 8.56635 0.741388 8.42696 0.272157 8.12315C-0.0262868 7.92966 -0.0928413 7.55353 0.140322 7.28819C0.364884 7.03274 0.77671 6.98675 1.06708 7.17491C1.31885 7.33745 1.54475 7.39082 1.7536 7.39269C2.14157 7.39439 2.58892 7.21403 3.0954 6.88585C4.0393 6.27383 5.32049 6.27372 6.26434 6.88585C6.83171 7.25325 7.20679 7.4044 7.50263 7.4044L7.61786 7.39757C7.88702 7.36437 8.22244 7.21514 8.69501 6.91319L8.73993 6.8839ZM8.73993 3.45909C9.6839 2.8469 10.9637 2.84704 11.9099 3.45909C12.3056 3.71442 12.672 3.88662 13.0065 3.9464L13.1198 3.96202C13.3836 3.98772 13.6485 3.93728 13.9372 3.75108C14.2276 3.56292 14.6394 3.60891 14.864 3.86437C15.0973 4.1299 15.0275 4.50707 14.7292 4.69835L14.7302 4.69933C14.0809 5.11962 13.3945 5.21432 12.7438 5.10265C12.1248 4.99538 11.5699 4.70576 11.112 4.40929C10.64 4.10315 10.0048 4.10313 9.5329 4.40929C8.95674 4.78345 8.26849 5.15635 7.4997 5.15636C6.7308 5.15631 6.04506 4.78107 5.46942 4.40929C4.99733 4.10292 4.3614 4.10289 3.88934 4.40929C3.31971 4.77719 2.58115 5.14859 1.74579 5.14464C1.24292 5.14252 0.741366 5.0031 0.272157 4.69933C-0.0262792 4.50584 -0.0927164 4.12967 0.140322 3.86437C0.364886 3.60891 0.776705 3.5629 1.06708 3.75108C1.31883 3.91359 1.54477 3.96699 1.7536 3.96886C2.14157 3.97057 2.58892 3.7902 3.0954 3.46202C4.03931 2.84995 5.32046 2.84988 6.26434 3.46202C6.83167 3.82939 7.2068 3.98057 7.50263 3.98058L7.61786 3.97374C7.88702 3.94054 8.22247 3.79129 8.69501 3.48937V3.48839L8.73993 3.45909Z" fill="#666666"/>
</g>
<defs>
<clipPath id="clip0_20417_33866">
<rect width="15" height="15" fill="white"/>
</clipPath>
</defs>
</svg>
